<?xml version="1.0" encoding="utf-8"?>
<!-- Generator: Adobe Illustrator 19.2.1, SVG Export Plug-In . SVG Version: 6.00 Build 0)  -->
<svg version="1.1" id="Layer_1" xmlns="http://www.w3.org/2000/svg" xmlns:xlink="http://www.w3.org/1999/xlink" x="0px" y="0px"
	 viewBox="0 0 600 200" style="enable-background:new 0 0 600 200;" xml:space="preserve">
<style type="text/css">
	.st0{fill:#EDB61E;}
	.st1{fill:#231F20;}
	.st2{fill:#C3C6C8;}
</style>
<g>
	<polygon class="st0" points="302.1,96 315.3,96 304.2,108.8 310.7,108.8 298.4,123.9 301.8,113 290.2,113 	"/>
	<g>
		<path class="st1" d="M37.7,82.2c-0.1,0.1-0.3,0.1-0.4,0.1c-0.1,0-0.2,0.1-0.3,0.1c-0.1,0-0.2,0.1-0.4,0.1
			c-0.3,0.1-0.6,0.1-0.9,0.2c-0.3,0-0.6,0.1-0.9,0.1c-0.7,0-1.3-0.1-1.8-0.4c-0.6-0.2-1-0.6-1.3-1.1c-0.3-0.5-0.5-1.1-0.5-1.9
			c0-0.5,0.1-0.9,0.3-1.4c0.2-0.5,0.4-0.8,0.8-1.1c0.3-0.2,0.6-0.4,0.9-0.5c0.3-0.1,0.6-0.2,0.9-0.2c0.3,0,0.6-0.1,0.9-0.1
			c0.6,0,1,0,1.4,0.1c0.4,0.1,0.8,0.2,1.2,0.3v1.5c-0.3-0.2-0.6-0.3-0.9-0.4c-0.3-0.1-0.7-0.2-1.2-0.2c-0.6,0-1,0.1-1.3,0.3
			c-0.3,0.2-0.6,0.5-0.7,0.8c-0.1,0.3-0.2,0.6-0.2,0.9c0,0.3,0.1,0.6,0.2,0.9c0.2,0.3,0.4,0.5,0.7,0.7c0.3,0.2,0.7,0.3,1.1,0.3
			c0.3,0,0.5,0,0.8-0.1v-0.8h-0.9V79h2.6V82.2z"/>
		<path class="st1" d="M49.3,82.6h-2.1l-0.5-1.1c-0.2-0.4-0.4-0.7-0.5-0.9c-0.1-0.2-0.3-0.3-0.4-0.4c-0.1-0.1-0.3-0.1-0.5-0.1H45
			v2.5h-1.9v-6.5h3.3c0.5,0,1,0.1,1.3,0.3c0.3,0.2,0.6,0.5,0.7,0.8c0.2,0.3,0.2,0.6,0.2,0.9c0,0.3-0.1,0.6-0.2,0.8
			c-0.1,0.2-0.3,0.4-0.4,0.5c-0.1,0.1-0.3,0.2-0.5,0.3c0.2,0.1,0.4,0.3,0.5,0.4c0.1,0.2,0.3,0.5,0.6,1L49.3,82.6z M46.7,78.2
			c0-0.3-0.1-0.5-0.3-0.6c-0.2-0.1-0.5-0.2-1-0.2H45v1.6h0.4c0.5,0,0.8-0.1,1-0.2C46.6,78.7,46.7,78.5,46.7,78.2z"/>
		<path class="st1" d="M61.2,82.6h-2l-0.5-1.3h-2.8l-0.5,1.3h-2l2.9-6.5h2.2L61.2,82.6z M58.2,80.2l-0.9-2.4l-1,2.4H58.2z"/>
		<path class="st1" d="M71.4,78.2c0,0.2,0,0.5-0.1,0.7c-0.1,0.2-0.2,0.4-0.4,0.6c-0.2,0.2-0.4,0.4-0.7,0.5c-0.3,0.1-0.7,0.2-1.1,0.2
			h-1.3v2.4h-2v-6.5h3.2c0.4,0,0.8,0.1,1.1,0.2c0.3,0.1,0.6,0.3,0.7,0.5c0.2,0.2,0.3,0.4,0.4,0.6C71.4,77.7,71.4,77.9,71.4,78.2z
			 M69.5,78.2c0-0.3-0.1-0.5-0.3-0.6c-0.2-0.1-0.5-0.2-1-0.2h-0.4v1.6h0.4c0.3,0,0.6,0,0.7-0.1c0.2,0,0.3-0.1,0.4-0.2
			C69.4,78.6,69.5,78.4,69.5,78.2z"/>
		<path class="st1" d="M83.2,82.6h-1.9v-2.5h-2.9v2.5h-2v-6.5h2v2.4h2.9v-2.4h1.9V82.6z"/>
		<path class="st1" d="M90.6,82.6h-2v-6.5h2V82.6z"/>
		<path class="st1" d="M101.8,82.1c-0.3,0.1-0.5,0.3-0.8,0.3c-0.3,0.1-0.6,0.1-0.8,0.2c-0.3,0-0.6,0.1-0.9,0.1
			c-0.6,0-1.1-0.1-1.5-0.2c-0.4-0.2-0.8-0.4-1.2-0.7c-0.3-0.3-0.6-0.7-0.7-1.1c-0.2-0.4-0.2-0.9-0.2-1.3c0-0.6,0.1-1,0.3-1.5
			c0.2-0.4,0.5-0.8,0.8-1c0.3-0.3,0.7-0.5,1.2-0.6c0.4-0.1,0.9-0.2,1.4-0.2c0.7,0,1.6,0.2,2.5,0.5v1.7c-0.3-0.2-0.6-0.4-0.9-0.5
			c-0.3-0.1-0.7-0.2-1.1-0.2c-0.4,0-0.7,0.1-1.1,0.2c-0.3,0.2-0.6,0.4-0.8,0.6c-0.2,0.3-0.3,0.6-0.3,1c0,0.3,0.1,0.6,0.3,0.9
			c0.2,0.3,0.4,0.5,0.7,0.6c0.3,0.2,0.7,0.2,1,0.2c0.3,0,0.6,0,0.9-0.1c0.3-0.1,0.5-0.2,0.7-0.3c0.2-0.1,0.4-0.2,0.6-0.3V82.1z"/>
		<path class="st1" d="M120.3,79.5c0,0.7-0.1,1.2-0.4,1.6c-0.2,0.4-0.5,0.7-0.9,1c-0.5,0.4-1.1,0.5-1.9,0.5H117h-3.4v-6.5h2.7
			c0.4,0,0.8,0,1,0.1c0.3,0,0.5,0.1,0.8,0.2c0.2,0.1,0.4,0.2,0.6,0.3c0.2,0.1,0.3,0.2,0.4,0.3c0.2,0.2,0.4,0.4,0.6,0.6
			c0.2,0.2,0.3,0.5,0.4,0.9C120.2,78.8,120.3,79.1,120.3,79.5z M118.3,79.4c0-0.5-0.1-0.9-0.3-1.2c-0.2-0.3-0.4-0.5-0.7-0.6
			c-0.3-0.1-0.6-0.1-0.9-0.1h-0.8v3.8h0.8c0.5,0,1-0.1,1.3-0.4C118.1,80.7,118.3,80.2,118.3,79.4z"/>
		<path class="st1" d="M130.2,82.6h-4.9v-6.5h4.8v1.3h-2.8v1.2h2.7v1.3h-2.7v1.4h2.9V82.6z"/>
		<path class="st1" d="M139.9,80.7c0,0.4-0.1,0.8-0.3,1.1c-0.2,0.3-0.5,0.5-0.9,0.7c-0.4,0.2-0.8,0.2-1.3,0.2c-0.1,0-0.3,0-0.5,0
			c-0.2,0-0.5-0.1-0.8-0.1c-0.3-0.1-0.7-0.2-1-0.3v-1.6c0.3,0.2,0.6,0.4,1,0.5c0.3,0.1,0.7,0.2,1,0.2c0.3,0,0.6-0.1,0.6-0.2
			c0.1-0.1,0.1-0.2,0.1-0.3c0-0.2-0.1-0.3-0.3-0.4c-0.2-0.1-0.4-0.2-0.7-0.4c-0.4-0.1-0.7-0.3-0.9-0.5c-0.3-0.2-0.5-0.4-0.7-0.7
			c-0.2-0.3-0.3-0.6-0.3-0.9c0-0.3,0.1-0.7,0.3-0.9c0.2-0.3,0.4-0.5,0.8-0.7c0.4-0.2,0.8-0.3,1.3-0.3c0.4,0,0.7,0,1,0.1
			c0.3,0.1,0.6,0.1,0.8,0.2c0.2,0.1,0.3,0.2,0.4,0.2v1.5c-0.3-0.2-0.6-0.4-0.9-0.5c-0.3-0.1-0.7-0.2-1-0.2c-0.2,0-0.4,0-0.5,0.1
			c-0.1,0.1-0.2,0.2-0.2,0.3c0,0.1,0.1,0.2,0.2,0.3c0.1,0.1,0.3,0.2,0.6,0.3c0.5,0.2,0.9,0.4,1.2,0.6c0.3,0.2,0.5,0.4,0.7,0.6
			C139.8,80.1,139.9,80.4,139.9,80.7z"/>
		<path class="st1" d="M147,82.6h-2v-6.5h2V82.6z"/>
		<path class="st1" d="M158.5,82.2c-0.1,0.1-0.3,0.1-0.4,0.1c-0.1,0-0.2,0.1-0.3,0.1c-0.1,0-0.2,0.1-0.4,0.1
			c-0.3,0.1-0.6,0.1-0.9,0.2c-0.3,0-0.6,0.1-0.9,0.1c-0.7,0-1.3-0.1-1.8-0.4c-0.6-0.2-1-0.6-1.3-1.1c-0.3-0.5-0.5-1.1-0.5-1.9
			c0-0.5,0.1-0.9,0.3-1.4c0.2-0.5,0.4-0.8,0.8-1.1c0.3-0.2,0.6-0.4,0.9-0.5c0.3-0.1,0.6-0.2,0.9-0.2c0.3,0,0.6-0.1,0.9-0.1
			c0.6,0,1,0,1.4,0.1c0.4,0.1,0.8,0.2,1.2,0.3v1.5c-0.3-0.2-0.6-0.3-0.9-0.4c-0.3-0.1-0.7-0.2-1.2-0.2c-0.6,0-1,0.1-1.4,0.3
			c-0.3,0.2-0.6,0.5-0.7,0.8c-0.1,0.3-0.2,0.6-0.2,0.9c0,0.3,0.1,0.6,0.2,0.9c0.2,0.3,0.4,0.5,0.7,0.7c0.3,0.2,0.7,0.3,1.1,0.3
			c0.2,0,0.5,0,0.8-0.1v-0.8h-0.9V79h2.6V82.2z"/>
		<path class="st1" d="M170.9,82.6h-1.7l-3.4-3.6v3.6h-1.9v-6.5h1.7l3.3,3.6v-3.6h1.9V82.6z"/>
		<path class="st1" d="M205,82.6h-2v-6.5h2V82.6z"/>
		<path class="st1" d="M215.3,82.6h-4.9v-6.5h1.9v4.9h3V82.6z"/>
		<path class="st1" d="M225.2,82.6h-4.9v-6.5h1.9v4.9h3V82.6z"/>
		<path class="st1" d="M236.4,79.7c0,0.6-0.1,1-0.3,1.4c-0.2,0.4-0.5,0.7-0.8,0.9c-0.3,0.2-0.7,0.4-1.1,0.5
			c-0.4,0.1-0.8,0.1-1.2,0.1c-0.5,0-1.1-0.1-1.6-0.3c-0.5-0.2-0.9-0.5-1.3-1c-0.3-0.4-0.5-1-0.5-1.8v-3.6h1.9v3.1
			c0,0.4,0.1,0.8,0.2,1.1c0.1,0.3,0.3,0.5,0.5,0.6c0.2,0.1,0.5,0.2,0.8,0.2c0.3,0,0.5-0.1,0.8-0.2c0.2-0.1,0.4-0.3,0.5-0.6
			c0.1-0.3,0.2-0.6,0.2-1.1v-3.1h2V79.7z"/>
		<path class="st1" d="M246.3,80.7c0,0.4-0.1,0.8-0.3,1.1c-0.2,0.3-0.5,0.5-0.9,0.7c-0.4,0.2-0.8,0.2-1.3,0.2c-0.1,0-0.3,0-0.5,0
			c-0.2,0-0.5-0.1-0.8-0.1c-0.3-0.1-0.7-0.2-1-0.3v-1.6c0.3,0.2,0.6,0.4,1,0.5c0.3,0.1,0.7,0.2,1,0.2c0.3,0,0.6-0.1,0.7-0.2
			c0.1-0.1,0.1-0.2,0.1-0.3c0-0.2-0.1-0.3-0.3-0.4c-0.2-0.1-0.4-0.2-0.7-0.4c-0.4-0.1-0.7-0.3-0.9-0.5c-0.3-0.2-0.5-0.4-0.7-0.7
			c-0.2-0.3-0.3-0.6-0.3-0.9c0-0.3,0.1-0.7,0.3-0.9c0.2-0.3,0.4-0.5,0.8-0.7c0.4-0.2,0.8-0.3,1.3-0.3c0.4,0,0.7,0,1,0.1
			c0.3,0.1,0.6,0.1,0.8,0.2c0.2,0.1,0.3,0.2,0.4,0.2v1.5c-0.3-0.2-0.6-0.4-0.9-0.5s-0.7-0.2-1-0.2c-0.2,0-0.4,0-0.5,0.1
			c-0.1,0.1-0.2,0.2-0.2,0.3c0,0.1,0.1,0.2,0.2,0.3c0.1,0.1,0.3,0.2,0.6,0.3c0.5,0.2,0.9,0.4,1.2,0.6c0.3,0.2,0.5,0.4,0.7,0.6
			C246.2,80.1,246.3,80.4,246.3,80.7z"/>
		<path class="st1" d="M257.6,77.7h-2.4v4.9h-1.9v-4.9h-2.4v-1.6h6.7V77.7z"/>
		<path class="st1" d="M268.8,82.6h-2.1l-0.5-1.1c-0.2-0.4-0.4-0.7-0.5-0.9c-0.2-0.2-0.3-0.3-0.4-0.4c-0.1-0.1-0.3-0.1-0.5-0.1h-0.2
			v2.5h-2v-6.5h3.3c0.5,0,1,0.1,1.3,0.3c0.3,0.2,0.6,0.5,0.7,0.8c0.2,0.3,0.2,0.6,0.2,0.9c0,0.3-0.1,0.6-0.2,0.8
			c-0.1,0.2-0.3,0.4-0.4,0.5c-0.1,0.1-0.3,0.2-0.5,0.3c0.2,0.1,0.4,0.3,0.5,0.4c0.1,0.2,0.3,0.5,0.6,1L268.8,82.6z M266.2,78.2
			c0-0.3-0.1-0.5-0.3-0.6c-0.2-0.1-0.5-0.2-1-0.2h-0.4v1.6h0.4c0.5,0,0.8-0.1,1-0.2C266.1,78.7,266.2,78.5,266.2,78.2z"/>
		<path class="st1" d="M280.7,82.6h-2l-0.5-1.3h-2.8l-0.5,1.3h-2l2.9-6.5h2.2L280.7,82.6z M277.7,80.2l-0.9-2.4l-1,2.4H277.7z"/>
		<path class="st1" d="M290.6,77.7h-2.4v4.9h-1.9v-4.9h-2.4v-1.6h6.7V77.7z"/>
		<path class="st1" d="M297.5,82.6h-1.9v-6.5h1.9V82.6z"/>
		<path class="st1" d="M309.9,79.4c0,0.6-0.1,1.2-0.4,1.7c-0.3,0.5-0.7,0.9-1.2,1.2c-0.6,0.3-1.2,0.4-2,0.4c-0.8,0-1.5-0.2-2-0.5
			c-0.6-0.3-1-0.7-1.2-1.2c-0.3-0.5-0.4-1.1-0.4-1.6s0.1-1.1,0.4-1.6c0.3-0.5,0.7-0.9,1.2-1.2c0.6-0.3,1.2-0.5,2-0.5
			c0.6,0,1.1,0.1,1.6,0.3c0.5,0.2,0.9,0.4,1.2,0.7c0.3,0.3,0.5,0.7,0.7,1.1C309.8,78.5,309.9,78.9,309.9,79.4z M307.9,79.4
			c0-0.2,0-0.5-0.1-0.7c-0.1-0.2-0.2-0.4-0.3-0.5c-0.1-0.1-0.3-0.3-0.5-0.3c-0.2-0.1-0.5-0.1-0.7-0.1c-0.5,0-0.9,0.2-1.2,0.5
			c-0.3,0.3-0.4,0.7-0.4,1.2c0,0.5,0.2,0.9,0.5,1.2c0.3,0.3,0.7,0.5,1.2,0.5c0.4,0,0.7-0.1,0.9-0.2c0.3-0.1,0.4-0.3,0.6-0.6
			C307.8,80,307.9,79.7,307.9,79.4z"/>
		<path class="st1" d="M321.8,82.6h-1.7l-3.4-3.6v3.6h-1.9v-6.5h1.7l3.3,3.6v-3.6h1.9V82.6z"/>
		<path class="st1" d="M364.4,76.1l-2.8,6.6h-1.1l-1.7-3.8l-1.7,3.8h-1.1l-2.7-6.6h2l1.3,3.6l1.5-3.6h1.4l1.5,3.6l1.4-3.6H364.4z"/>
		<path class="st1" d="M374,82.6h-4.9v-6.5h4.8v1.3h-2.8v1.2h2.7v1.3h-2.7v1.4h2.9V82.6z"/>
		<path class="st1" d="M385,80.8c0,0.6-0.2,1-0.6,1.3c-0.4,0.3-0.9,0.5-1.6,0.5h-3.7v-6.5h3.1c0.4,0,0.8,0,1.1,0.1
			c0.3,0.1,0.5,0.2,0.7,0.3c0.2,0.1,0.3,0.3,0.4,0.5c0.1,0.2,0.1,0.4,0.1,0.6c0,0.2,0,0.5-0.1,0.7c-0.1,0.2-0.2,0.4-0.3,0.5
			c-0.1,0.1-0.3,0.2-0.4,0.3c0.4,0.2,0.8,0.4,1,0.7C384.9,80,385,80.4,385,80.8z M382.8,78c0-0.3-0.1-0.5-0.3-0.6
			c-0.2-0.1-0.5-0.2-1-0.2h-0.4v1.5h0.4c0.4,0,0.8-0.1,1-0.2C382.7,78.5,382.8,78.3,382.8,78z M383.1,80.7c0-0.6-0.4-0.8-1.2-0.8
			h-0.8v1.7h0.8C382.7,81.5,383.1,81.2,383.1,80.7z"/>
		<path class="st1" d="M403.4,79.5c0,0.7-0.1,1.2-0.4,1.6c-0.2,0.4-0.5,0.7-0.9,1c-0.5,0.4-1.1,0.5-1.9,0.5h-0.1h-3.4v-6.5h2.7
			c0.4,0,0.8,0,1,0.1c0.3,0,0.6,0.1,0.8,0.2c0.2,0.1,0.4,0.2,0.6,0.3c0.2,0.1,0.3,0.2,0.4,0.3c0.2,0.2,0.4,0.4,0.6,0.6
			c0.2,0.2,0.3,0.5,0.4,0.9C403.4,78.8,403.4,79.1,403.4,79.5z M401.4,79.4c0-0.5-0.1-0.9-0.3-1.2c-0.2-0.3-0.4-0.5-0.7-0.6
			c-0.3-0.1-0.6-0.1-0.9-0.1h-0.8v3.8h0.8c0.5,0,1-0.1,1.3-0.4C401.3,80.7,401.4,80.2,401.4,79.4z"/>
		<path class="st1" d="M413.3,82.6h-4.9v-6.5h4.8v1.3h-2.8v1.2h2.7v1.3h-2.7v1.4h2.9V82.6z"/>
		<path class="st1" d="M423,80.7c0,0.4-0.1,0.8-0.3,1.1c-0.2,0.3-0.5,0.5-0.9,0.7c-0.4,0.2-0.8,0.2-1.3,0.2c-0.1,0-0.3,0-0.5,0
			c-0.2,0-0.5-0.1-0.8-0.1c-0.3-0.1-0.7-0.2-1-0.3v-1.6c0.3,0.2,0.6,0.4,1,0.5c0.3,0.1,0.7,0.2,1,0.2c0.3,0,0.5-0.1,0.6-0.2
			c0.1-0.1,0.1-0.2,0.1-0.3c0-0.2-0.1-0.3-0.3-0.4c-0.2-0.1-0.4-0.2-0.7-0.4c-0.4-0.1-0.7-0.3-0.9-0.5c-0.3-0.2-0.5-0.4-0.7-0.7
			c-0.2-0.3-0.3-0.6-0.3-0.9c0-0.3,0.1-0.7,0.3-0.9c0.2-0.3,0.4-0.5,0.8-0.7c0.4-0.2,0.8-0.3,1.3-0.3c0.4,0,0.7,0,1,0.1
			c0.3,0.1,0.6,0.1,0.8,0.2c0.2,0.1,0.3,0.2,0.4,0.2v1.5c-0.3-0.2-0.6-0.4-0.9-0.5c-0.3-0.1-0.7-0.2-1-0.2c-0.2,0-0.4,0-0.5,0.1
			c-0.1,0.1-0.2,0.2-0.2,0.3c0,0.1,0.1,0.2,0.2,0.3c0.1,0.1,0.3,0.2,0.6,0.3c0.5,0.2,0.9,0.4,1.2,0.6c0.3,0.2,0.5,0.4,0.7,0.6
			C422.9,80.1,423,80.4,423,80.7z"/>
		<path class="st1" d="M430.1,82.6h-1.9v-6.5h1.9V82.6z"/>
		<path class="st1" d="M441.7,82.2c-0.1,0.1-0.3,0.1-0.4,0.1c-0.1,0-0.2,0.1-0.3,0.1c-0.1,0-0.2,0.1-0.4,0.1
			c-0.3,0.1-0.6,0.1-0.9,0.2c-0.3,0-0.6,0.1-0.9,0.1c-0.7,0-1.3-0.1-1.8-0.4c-0.6-0.2-1-0.6-1.3-1.1c-0.3-0.5-0.5-1.1-0.5-1.9
			c0-0.5,0.1-0.9,0.3-1.4c0.2-0.5,0.4-0.8,0.8-1.1c0.3-0.2,0.6-0.4,0.9-0.5c0.3-0.1,0.6-0.2,0.9-0.2c0.3,0,0.6-0.1,0.9-0.1
			c0.6,0,1,0,1.4,0.1c0.4,0.1,0.8,0.2,1.2,0.3v1.5c-0.3-0.2-0.6-0.3-0.9-0.4c-0.3-0.1-0.7-0.2-1.2-0.2c-0.6,0-1,0.1-1.4,0.3
			c-0.3,0.2-0.6,0.5-0.7,0.8c-0.1,0.3-0.2,0.6-0.2,0.9c0,0.3,0.1,0.6,0.2,0.9c0.2,0.3,0.4,0.5,0.7,0.7c0.3,0.2,0.7,0.3,1.1,0.3
			c0.2,0,0.5,0,0.8-0.1v-0.8h-0.9V79h2.6V82.2z"/>
		<path class="st1" d="M454,82.6h-1.7L449,79v3.6H447v-6.5h1.7l3.3,3.6v-3.6h2V82.6z"/>
		<path class="st1" d="M492.1,80.8c0,0.6-0.2,1-0.6,1.3c-0.4,0.3-0.9,0.5-1.6,0.5h-3.7v-6.5h3.1c0.4,0,0.8,0,1.1,0.1
			c0.3,0.1,0.5,0.2,0.7,0.3c0.2,0.1,0.3,0.3,0.4,0.5c0.1,0.2,0.1,0.4,0.1,0.6c0,0.2,0,0.5-0.1,0.7c-0.1,0.2-0.2,0.4-0.3,0.5
			c-0.1,0.1-0.3,0.2-0.4,0.3c0.4,0.2,0.8,0.4,1,0.7C491.9,80,492.1,80.4,492.1,80.8z M489.8,78c0-0.3-0.1-0.5-0.3-0.6
			c-0.2-0.1-0.5-0.2-1-0.2h-0.4v1.5h0.4c0.4,0,0.8-0.1,1-0.2C489.7,78.5,489.8,78.3,489.8,78z M490.1,80.7c0-0.6-0.4-0.8-1.2-0.8
			h-0.8v1.7h0.8C489.7,81.5,490.1,81.2,490.1,80.7z"/>
		<path class="st1" d="M503.4,82.6h-2.1l-0.5-1.1c-0.2-0.4-0.4-0.7-0.5-0.9c-0.2-0.2-0.3-0.3-0.4-0.4c-0.1-0.1-0.3-0.1-0.5-0.1h-0.2
			v2.5h-2v-6.5h3.3c0.5,0,1,0.1,1.3,0.3c0.3,0.2,0.6,0.5,0.7,0.8c0.2,0.3,0.2,0.6,0.2,0.9c0,0.3-0.1,0.6-0.2,0.8
			c-0.1,0.2-0.3,0.4-0.4,0.5c-0.1,0.1-0.3,0.2-0.5,0.3c0.2,0.1,0.4,0.3,0.5,0.4c0.1,0.2,0.3,0.5,0.6,1L503.4,82.6z M500.7,78.2
			c0-0.3-0.1-0.5-0.3-0.6c-0.2-0.1-0.5-0.2-1-0.2h-0.4v1.6h0.4c0.5,0,0.8-0.1,1-0.2C500.7,78.7,500.7,78.5,500.7,78.2z"/>
		<path class="st1" d="M515.2,82.6h-2l-0.5-1.3h-2.8l-0.5,1.3h-2l2.9-6.5h2.2L515.2,82.6z M512.2,80.2l-0.9-2.4l-1,2.4H512.2z"/>
		<path class="st1" d="M526.9,82.6h-1.7l-3.4-3.6v3.6h-1.9v-6.5h1.7l3.3,3.6v-3.6h1.9V82.6z"/>
		<path class="st1" d="M539,79.5c0,0.7-0.1,1.2-0.4,1.6c-0.2,0.4-0.5,0.7-0.9,1c-0.5,0.4-1.1,0.5-1.9,0.5h-0.1h-3.4v-6.5h2.7
			c0.4,0,0.8,0,1,0.1c0.3,0,0.5,0.1,0.8,0.2c0.2,0.1,0.4,0.2,0.6,0.3c0.2,0.1,0.3,0.2,0.4,0.3c0.2,0.2,0.4,0.4,0.6,0.6
			c0.2,0.2,0.3,0.5,0.4,0.9C539,78.8,539,79.1,539,79.5z M537,79.4c0-0.5-0.1-0.9-0.3-1.2c-0.2-0.3-0.4-0.5-0.7-0.6
			c-0.3-0.1-0.6-0.1-0.9-0.1h-0.8v3.8h0.8c0.5,0,1-0.1,1.3-0.4C536.8,80.7,537,80.2,537,79.4z"/>
		<path class="st1" d="M546,82.6h-1.9v-6.5h1.9V82.6z"/>
		<path class="st1" d="M558.5,82.6h-1.7l-3.4-3.6v3.6h-1.9v-6.5h1.7l3.3,3.6v-3.6h1.9V82.6z"/>
		<path class="st1" d="M570,82.2c-0.1,0.1-0.3,0.1-0.4,0.1c-0.1,0-0.2,0.1-0.3,0.1c-0.1,0-0.2,0.1-0.4,0.1c-0.3,0.1-0.6,0.1-0.9,0.2
			c-0.3,0-0.6,0.1-0.9,0.1c-0.7,0-1.3-0.1-1.8-0.4c-0.6-0.2-1-0.6-1.3-1.1c-0.3-0.5-0.5-1.1-0.5-1.9c0-0.5,0.1-0.9,0.3-1.4
			c0.2-0.5,0.4-0.8,0.8-1.1c0.3-0.2,0.6-0.4,0.9-0.5c0.3-0.1,0.6-0.2,0.9-0.2c0.3,0,0.6-0.1,0.9-0.1c0.6,0,1,0,1.4,0.1
			c0.4,0.1,0.8,0.2,1.2,0.3v1.5c-0.3-0.2-0.6-0.3-0.9-0.4c-0.3-0.1-0.7-0.2-1.2-0.2c-0.6,0-1,0.1-1.3,0.3c-0.3,0.2-0.6,0.5-0.7,0.8
			c-0.1,0.3-0.2,0.6-0.2,0.9c0,0.3,0.1,0.6,0.2,0.9c0.2,0.3,0.4,0.5,0.7,0.7c0.3,0.2,0.7,0.3,1.1,0.3c0.2,0,0.5,0,0.8-0.1v-0.8h-0.9
			V79h2.6V82.2z"/>
	</g>
	<rect x="29.3" y="107.9" class="st2" width="234.5" height="4.1"/>
	<rect x="336.3" y="107.9" class="st2" width="234.5" height="4.1"/>
</g>
</svg>
