<?xml version="1.0" encoding="utf-8"?>
<!-- Generator: Adobe Illustrator 19.2.1, SVG Export Plug-In . SVG Version: 6.00 Build 0)  -->
<svg version="1.1" id="Layer_1" xmlns="http://www.w3.org/2000/svg" xmlns:xlink="http://www.w3.org/1999/xlink" x="0px" y="0px"
	 viewBox="0 0 100 100" style="enable-background:new 0 0 100 100;" xml:space="preserve">
<style type="text/css">
	.st0{fill:#D1D3D3;}
	.st1{fill:#A4A9AD;}
</style>
<g>
	<rect y="0" class="st0" width="100" height="100"/>
	<g>
		<path class="st1" d="M50.5,32.9c-0.5,0.1-1.6,0.5-2.3,1.8c-0.8,1.5-0.7,3.7,0.4,6.6h-10c-1-0.1-4.7-0.5-6.6,1.1
			C31.4,43,31,43.8,31,44.7c-0.1,0.4-0.2,1.4,0.3,2.5c-0.9,0.2-1.7,0.5-2.3,1c-0.7,0.6-1.1,1.4-1.1,2.3c-0.1,0.5-0.2,2,0.8,3.3
			c0.1,0.1,0.2,0.2,0.3,0.3c-0.6,0.6-1,1.4-1,2.3c-0.1,0.5-0.2,2,0.8,3.3c0.8,1,2.1,1.6,3.8,1.7c-0.1,0.2-0.1,0.5-0.1,0.8
			c-0.1,0.5-0.2,2,0.8,3.3c0.9,1.2,2.5,1.8,4.6,1.8l7.4,0c0.4,0,1.4,0.1,2.8,0.1c4.4,0,12.4-0.6,14.3-4.8h4.7V45.1L65.5,45
			c0,0-3.8-0.6-8-9.1C56.7,34,54.3,31.7,50.5,32.9z M35.4,62.8 M38.1,61.5H40h8.2v-2.9h-9.5c-0.2,0-0.4,0-0.6,0h-4.6
			c-1.2,0-2-0.2-2.3-0.7c-0.3-0.4-0.2-1.1-0.2-1.1l0-0.3c0-0.2,0-0.2,0.1-0.3c0.4-0.4,1.5-0.5,2.5-0.6h14.6v-2.9h-14
			c-0.2,0-0.4,0-0.6,0h-0.1c-1.2,0-2-0.2-2.3-0.7c-0.3-0.4-0.2-1.1-0.2-1.1s-0.1-1.2,5.7-1.2h11.7V47H36.7c-1.2,0-2-0.2-2.3-0.7
			c0,0-2.5-2.2,4.3-2.2l14.9,0l-1-2.1c-2-4.1-1.6-5.6-1.5-5.9c0.1-0.3,0.3-0.3,0.3-0.3l0.3-0.1c2.4-0.8,3.3,0.8,3.5,1.3l0.1,0.1
			c3.6,7.3,7.2,9.7,9.1,10.4v12.2h-4.1L60,60.9c-0.6,3.4-10,3.9-14.5,3.6H38c-1.2,0-2-0.2-2.3-0.7C35.7,63.8,33.5,61.5,38.1,61.5z"
			/>
		<path class="st1" d="M72.2,61.8c0,2.3-1.9,4.1-4.1,4.1l0,0c-2.3,0-4.1-1.9-4.1-4.1V46.1c0-2.3,1.9-4.1,4.1-4.1l0,0
			c2.3,0,4.1,1.9,4.1,4.1V61.8z"/>
	</g>
</g>
</svg>
