<?xml version="1.0" encoding="utf-8"?>
<!-- Generator: Adobe Illustrator 19.2.1, SVG Export Plug-In . SVG Version: 6.00 Build 0)  -->
<svg version="1.1" id="Layer_1" xmlns="http://www.w3.org/2000/svg" xmlns:xlink="http://www.w3.org/1999/xlink" x="0px" y="0px"
	 viewBox="0 0 100 100" style="enable-background:new 0 0 100 100;" xml:space="preserve">
<style type="text/css">
	.st0{fill:#D1D3D3;}
	.st1{fill:#A4A9AD;}
</style>
<g>
	<rect x="-0.1" y="-0.1" class="st0" width="100.2" height="100.2"/>
	<g>
		<g>
			<polygon class="st1" points="49.7,31.2 55.5,31.2 50.6,36.7 53.5,36.7 48.1,43.4 49.6,38.6 44.4,38.6 			"/>
		</g>
		<g>
			<path class="st1" d="M56.4,56.2H43.6l0.1-2c0,0,0.2-4-2.8-8.7c-0.5-0.7-3.9-5.4-3.7-10.5c0-0.6,0.2-5.3,3.5-8.7
				c2.2-2.2,5.2-3.4,8.9-3.4l0,0l0.2,0c3.8,0,6.9,1.2,9.1,3.4c3.4,3.4,3.5,8.1,3.5,8.7c0.2,5.1-3.1,9.8-3.7,10.5
				c-3,4.8-2.8,8.7-2.8,8.7L56.4,56.2z M47.5,52.3h5c0.2-2,1-5.4,3.3-9.1l0.1-0.1c0,0,3.1-4.1,2.9-8.2v0v-0.1c0-0.8-0.3-8.3-8.8-8.4
				h-0.1c-8.5,0.1-8.7,7.5-8.7,8.4v0.1c-0.2,4,2.9,8.1,2.9,8.2l0.1,0.1C46.5,47,47.2,50.3,47.5,52.3z"/>
		</g>
		<g>
			<path class="st1" d="M56.9,61.7H42.8c-1.1,0-2-0.8-2-1.7c0-0.9,0.9-1.7,2-1.7h14.2c1.1,0,2,0.8,2,1.7
				C58.9,60.9,58,61.7,56.9,61.7z"/>
		</g>
		<g>
			<path class="st1" d="M56.9,67.3H42.8c-1.1,0-2-0.8-2-1.7c0-0.9,0.9-1.7,2-1.7h14.2c1.1,0,2,0.8,2,1.7
				C58.9,66.5,58,67.3,56.9,67.3z"/>
		</g>
		<g>
			<path class="st1" d="M56.9,72.8H42.8c-1.1,0-2-0.8-2-1.7c0-0.9,0.9-1.7,2-1.7h14.2c1.1,0,2,0.8,2,1.7
				C58.9,72.1,58,72.8,56.9,72.8z"/>
		</g>
		<path class="st1" d="M51.9,76.1c0,0.7-0.5,1.2-1.2,1.2h-1.8c-0.7,0-1.2-0.5-1.2-1.2l0,0c0-0.7,0.5-1.2,1.2-1.2h1.8
			C51.4,75,51.9,75.5,51.9,76.1L51.9,76.1z"/>
	</g>
</g>
</svg>
