<?xml version="1.0" encoding="utf-8"?>
<!-- Generator: Adobe Illustrator 19.2.1, SVG Export Plug-In . SVG Version: 6.00 Build 0)  -->
<svg version="1.1" id="Layer_1" xmlns="http://www.w3.org/2000/svg" xmlns:xlink="http://www.w3.org/1999/xlink" x="0px" y="0px"
	 viewBox="0 0 288 36" style="enable-background:new 0 0 288 36;" xml:space="preserve">
<g>
	<path d="M37,27.4h-5.7v-7.4h-8.5v7.4h-5.7V8.6h5.7v6.9h8.5V8.6H37V27.4z"/>
	<path d="M61.8,18c0,1.8-0.4,3.4-1.2,4.9c-0.8,1.5-2,2.7-3.6,3.5c-1.6,0.9-3.6,1.3-5.9,1.3c-2.3,0-4.3-0.5-5.9-1.4
		c-1.6-0.9-2.8-2.1-3.6-3.6c-0.8-1.5-1.2-3.1-1.2-4.7c0-1.7,0.4-3.3,1.2-4.7c0.8-1.5,2-2.7,3.6-3.6c1.6-0.9,3.6-1.4,5.9-1.4
		c1.7,0,3.3,0.3,4.7,0.8c1.4,0.5,2.5,1.2,3.4,2.1c0.9,0.9,1.5,1.9,2,3.1C61.6,15.5,61.8,16.7,61.8,18z M56.1,18
		c0-0.7-0.1-1.4-0.3-1.9c-0.2-0.6-0.5-1.1-0.9-1.5c-0.4-0.4-0.9-0.8-1.5-1c-0.6-0.2-1.3-0.4-2.1-0.4c-1.5,0-2.7,0.4-3.6,1.3
		c-0.9,0.9-1.3,2.1-1.3,3.5c0,1.4,0.4,2.6,1.3,3.5c0.9,0.9,2.1,1.3,3.6,1.3c1,0,1.9-0.2,2.7-0.6c0.7-0.4,1.3-1,1.7-1.7
		C55.9,19.8,56.1,18.9,56.1,18z"/>
	<path d="M95.5,8.6l-8.2,19.1h-3.3l-4.9-11.1l-5,11.1h-3.3l-8-19.1h5.9L72.6,19l4.5-10.4h4.1L85.6,19l4.1-10.4H95.5z"/>
	<path d="M112.1,27.4h-5.7V8.6h5.7V27.4z"/>
	<path d="M134.9,13.2H128v14.3h-5.7V13.2h-6.9V8.6h19.5V13.2z"/>
	<path d="M177,8.6l-8.2,19.1h-3.3l-4.9-11.1l-5,11.1h-3.3l-8-19.1h5.9l3.9,10.4l4.5-10.4h4.1l4.4,10.4l4.1-10.4H177z"/>
	<path d="M199.8,18c0,1.8-0.4,3.4-1.2,4.9c-0.8,1.5-2,2.7-3.6,3.5c-1.6,0.9-3.6,1.3-5.9,1.3c-2.3,0-4.3-0.5-5.9-1.4
		c-1.6-0.9-2.8-2.1-3.6-3.6c-0.8-1.5-1.2-3.1-1.2-4.7c0-1.7,0.4-3.3,1.2-4.7c0.8-1.5,2-2.7,3.6-3.6c1.6-0.9,3.6-1.4,5.9-1.4
		c1.7,0,3.3,0.3,4.7,0.8c1.4,0.5,2.5,1.2,3.4,2.1c0.9,0.9,1.5,1.9,2,3.1C199.5,15.5,199.8,16.7,199.8,18z M194,18
		c0-0.7-0.1-1.4-0.3-1.9c-0.2-0.6-0.5-1.1-0.9-1.5c-0.4-0.4-0.9-0.8-1.5-1c-0.6-0.2-1.3-0.4-2.1-0.4c-1.5,0-2.7,0.4-3.6,1.3
		c-0.9,0.9-1.3,2.1-1.3,3.5c0,1.4,0.4,2.6,1.3,3.5c0.9,0.9,2.1,1.3,3.6,1.3c1,0,1.9-0.2,2.7-0.6c0.7-0.4,1.3-1,1.7-1.7
		C193.8,19.8,194,18.9,194,18z"/>
	<path d="M221.5,27.4h-6.1l-1.5-3.3c-0.5-1.2-1-2.1-1.5-2.7c-0.4-0.6-0.9-0.9-1.3-1.1c-0.4-0.2-0.9-0.2-1.6-0.2H209v7.4h-5.7V8.6
		h9.7c1.6,0,2.8,0.3,3.8,1c1,0.6,1.7,1.4,2.2,2.3c0.4,0.9,0.7,1.8,0.7,2.6c0,1-0.2,1.8-0.5,2.4c-0.4,0.7-0.8,1.1-1.2,1.4
		c-0.4,0.3-0.9,0.6-1.4,0.9c0.6,0.4,1.1,0.8,1.5,1.3c0.4,0.5,0.9,1.5,1.6,2.9L221.5,27.4z M213.8,14.5c0-0.9-0.3-1.5-0.9-1.8
		c-0.6-0.3-1.5-0.5-2.8-0.5H209v4.5h1.2c1.4,0,2.3-0.2,2.8-0.5C213.6,16,213.8,15.4,213.8,14.5z"/>
	<path d="M243.9,27.4H237l-7.2-8.8v8.8h-5.7V8.6h5.7V17l6.8-8.4h6.2l-7,8.8L243.9,27.4z"/>
	<path d="M259.6,21.9c0,1.2-0.3,2.2-0.9,3.1c-0.6,0.9-1.4,1.5-2.5,2c-1.1,0.5-2.3,0.7-3.7,0.7c-0.4,0-0.9,0-1.4-0.1
		c-0.6-0.1-1.3-0.2-2.3-0.4c-0.9-0.2-1.9-0.6-2.9-1v-4.6c1,0.6,1.9,1.1,2.8,1.5c0.9,0.4,1.9,0.6,3,0.6c1,0,1.6-0.2,1.9-0.5
		c0.3-0.3,0.4-0.6,0.4-0.9c0-0.5-0.2-0.9-0.7-1.3c-0.5-0.3-1.2-0.7-2.1-1.1c-1-0.4-1.9-0.9-2.7-1.4c-0.8-0.5-1.4-1.2-1.9-1.9
		c-0.5-0.8-0.7-1.7-0.7-2.7c0-1,0.3-1.9,0.7-2.8c0.5-0.8,1.3-1.5,2.3-2c1-0.5,2.3-0.7,3.7-0.7c1.1,0,2,0.1,2.9,0.3
		c0.9,0.2,1.6,0.4,2.2,0.7c0.6,0.3,1,0.5,1.2,0.6v4.4c-0.8-0.6-1.6-1-2.6-1.5c-0.9-0.4-2-0.7-3-0.7c-0.7,0-1.2,0.1-1.5,0.4
		c-0.3,0.3-0.5,0.6-0.5,1c0,0.4,0.2,0.7,0.5,1c0.3,0.3,0.9,0.6,1.7,1c1.4,0.7,2.6,1.3,3.5,1.8c0.9,0.5,1.6,1.2,2,1.9
		C259.3,20,259.6,20.9,259.6,21.9z"/>
	<path d="M270.9,12.3c0,0.9-0.2,1.6-0.5,2.2c-0.3,0.6-1,1.3-2,2.3c-0.5,0.4-1,1-1.4,1.8c-0.4,0.8-0.6,1.4-0.6,1.9
		c0,0.6-0.3,0.9-1,0.9c-0.5,0-0.9-0.2-1-0.6c-0.1-0.3-0.2-0.6-0.2-1.1c0-0.4-0.1-0.8-0.1-1c0-0.9,0.2-1.7,0.5-2.5
		c0.1-0.3,0.3-0.7,0.5-1c0.2-0.3,0.3-0.6,0.4-0.9c0.1-0.3,0.1-0.5,0.1-0.7c0-0.3-0.1-0.7-0.4-0.9c-0.2-0.3-0.7-0.4-1.3-0.4
		c-0.5,0-1.1,0.1-1.6,0.4h-0.2l1.3-3.8c0.9-0.3,1.8-0.4,2.6-0.4c1.1,0,2,0.2,2.8,0.6c0.7,0.4,1.3,0.9,1.7,1.5
		C270.8,11,270.9,11.6,270.9,12.3z M268.4,24.7c0,0.8-0.3,1.5-0.9,2.1c-0.6,0.6-1.3,0.9-2,0.9c-0.8,0-1.5-0.3-2.1-0.9
		c-0.6-0.6-0.9-1.3-0.9-2.1c0-0.8,0.3-1.5,0.9-2.1c0.6-0.6,1.3-0.9,2.1-0.9c0.8,0,1.5,0.3,2,0.9C268.1,23.3,268.4,24,268.4,24.7z"/>
</g>
</svg>
