<svg id="Layer_1" data-name="Layer 1" xmlns="http://www.w3.org/2000/svg" viewBox="0 0 157.51 172.13"><defs><style>.cls-1{fill:#edb61e;}</style></defs><title>ksmithlogo</title><path d="M37.88,13.94h5.27l-12.79,14L46.3,43.42H40.54L25.47,28.86V43.42H21.24V13.94h4.22V27.42Z" transform="translate(-21.24 -13.94)"/><path d="M60.37,13.94H77.08v3.76H64.58v9H76.66v3.78H64.58v9.16h12.9v3.75H60.37V13.94Z" transform="translate(-21.24 -13.94)"/><path d="M111.46,13.94h4.2L103.2,43.54h-1L89.53,13.94h4.26l8.87,20.71Z" transform="translate(-21.24 -13.94)"/><path d="M129.75,13.94H134V43.42h-4.21V13.94Z" transform="translate(-21.24 -13.94)"/><path d="M174.74,13.94h4V43.42h-3.62L155.41,20.71V43.42h-4V13.94h3.41l19.89,22.9V13.94Z" transform="translate(-21.24 -13.94)"/><path d="M30.09,82.9L26.95,81a14.32,14.32,0,0,1-4.22-3.56,6.75,6.75,0,0,1-1.25-4,7.1,7.1,0,0,1,2.37-5.56A8.9,8.9,0,0,1,30,65.7a11.72,11.72,0,0,1,6.66,2v4.71a9.6,9.6,0,0,0-6.75-3,5.56,5.56,0,0,0-3.33.94,2.83,2.83,0,0,0-1.31,2.4,3.69,3.69,0,0,0,1,2.44,12.28,12.28,0,0,0,3.1,2.38l3.16,1.88q5.3,3.15,5.3,8a7.41,7.41,0,0,1-2.33,5.66,8.55,8.55,0,0,1-6.07,2.18,12.74,12.74,0,0,1-7.81-2.64V87.46c2.25,2.84,4.83,4.25,7.77,4.25a4.87,4.87,0,0,0,3.24-1.09,3.37,3.37,0,0,0,1.29-2.71Q33.91,85.26,30.09,82.9Z" transform="translate(-21.24 -13.94)"/><path d="M76,66.08h3.88V95H75.71V72.5l-8.9,11.2H66L57,72.5V95H52.89v-29h3.93L66.44,78Z" transform="translate(-21.24 -13.94)"/><path d="M96.77,66.08h4.14V95H96.77v-29Z" transform="translate(-21.24 -13.94)"/><path d="M115.49,66h24.18v3.69h-10.1V95h-4.17V69.73h-9.92V66Z" transform="translate(-21.24 -13.94)"/><path d="M174.61,66.08h4.14V95h-4.14V82.42H158.35V95H154.2v-29h4.15V78.6h16.27V66.08Z" transform="translate(-21.24 -13.94)"/><path class="cls-1" d="M93.39,160.33v13.56l-1.64-.1a25.64,25.64,0,0,0-13,4c-0.14.11-6.43,4.8-13.37,4.8l-0.66,0h0c-5.42,0-15.79-3.4-15.81-16.3S59.31,150,64.79,150H65.4c6.94,0,13.23,4.69,13.48,4.88a24.84,24.84,0,0,0,12.52,4h2v1.54ZM52,166.69c0.12,12.68,12.29,12.83,12.81,12.83H65.4c5.89,0,11.56-4.21,11.62-4.25a29.42,29.42,0,0,1,13.28-4.54v-8.87a29.35,29.35,0,0,1-13.16-4.47C77,157.25,71.29,153,65.4,153H64.88c-0.61,0-12.81.15-12.87,13.16l0,0.13Z" transform="translate(-21.24 -13.94)"/><path class="cls-1" d="M65.4,183.56l-0.69,0c-5.77,0-16.71-3.6-16.73-17.23S59,149,64.79,149h0.6c7.46,0,14,5,14.07,5.09a23.73,23.73,0,0,0,11.93,3.76h2.93v17l-2.64-.17a24.92,24.92,0,0,0-12.42,3.9h0S72.74,183.56,65.4,183.56Zm0-32.67H64.8c-5.17,0-14.93,3.22-14.95,15.41s9.73,15.35,14.87,15.35l0.68,0c6.67,0,12.71-4.55,12.77-4.6a26.88,26.88,0,0,1,13.54-4.24l0.72,0V159.73H91.4a25.82,25.82,0,0,1-13-4.1C78.24,155.52,72,150.89,65.4,150.89Zm0,29.57H64.78c-0.55,0-13.61-.16-13.73-13.75l0-.35V166.2c0.07-13.93,13.25-14.09,13.81-14.09H65.4c5.73,0,11.22,3.74,12.26,4.49a28.37,28.37,0,0,0,12.7,4.32L91.24,161V171.6l-0.88.06a28.41,28.41,0,0,0-12.85,4.41C76.52,176.78,71.12,180.46,65.4,180.46Zm0-26.48H64.89c-1.23,0-11.89.34-11.95,12.22l0,0.12-0.05.47c0.12,11.64,11.4,11.77,11.88,11.77h0.63c5.23,0,10.46-3.64,11-4.06a31,31,0,0,1,12.91-4.66v-7.16a30.84,30.84,0,0,1-12.71-4.53C75.61,157.43,70.56,154,65.41,154Z" transform="translate(-21.24 -13.94)"/><polygon class="cls-1" points="41.72 152.71 41.72 144.89 49.2 151.44 49.2 147.62 58.1 154.89 51.7 152.89 51.7 159.8 41.72 152.71"/><path d="M149.92,164.74l-28-17.11-12.48,9h-1.3v-2.07a1.56,1.56,0,1,0-3.12,0V178a1.56,1.56,0,1,0,3.12,0v-2.06h1.3l12.48,9,28-17.11h1.16v-3.09h-1.16Zm-28-1.32v5.72h5.71v-1.31H144l-21.91,13.4-11.61-8.37h-2.3V159.71h2.3l11.63-8.37L144,164.74H127.68v-1.32H122Z" transform="translate(-21.24 -13.94)"/><path d="M121.92,186.06l-12.8-9.18V178a2.5,2.5,0,1,1-5,0V154.56a2.5,2.5,0,0,1,5,0l0.06,1.13,12.74-9.18,28.26,17.3H152v5h-1.83ZM107.24,175h2.54l12.22,8.8,27.64-16.92h0.49v-1.21h-0.49L122,148.75l-12.22,8.81h-2.54v-3a0.62,0.62,0,1,0-1.24,0V178a0.62,0.62,0,1,0,1.24,0v-3Zm14.81,7.34-11.87-8.55h-2.94v-15h2.94l11.89-8.56,25.26,15.47H126.74v-1.32H122.9v3.84h3.84v-1.31h20.59Zm-12.93-10.43h1.66l11.35,8.18,18.53-11.34h-12v1.31H121v-7.6h7.59v1.32h12.05l-18.52-11.34-11.37,8.19h-1.66v11.28Z" transform="translate(-21.24 -13.94)"/><path d="M99.28,153a1.57,1.57,0,0,0-1.57,1.56V178a1.56,1.56,0,0,0,3.13,0V154.56A1.57,1.57,0,0,0,99.28,153Z" transform="translate(-21.24 -13.94)"/><path d="M99.28,180.51a2.5,2.5,0,0,1-2.5-2.49V154.56a2.5,2.5,0,0,1,5,0V178A2.5,2.5,0,0,1,99.28,180.51Zm0-26.58a0.62,0.62,0,0,0-.62.62V178a0.62,0.62,0,0,0,1.25,0V154.56A0.63,0.63,0,0,0,99.28,153.94Z" transform="translate(-21.24 -13.94)"/><rect x="22.18" y="106.06" width="4.06" height="4.06"/><rect x="131.27" y="106.06" width="4.06" height="4.06"/><path d="M68.95,123a4.33,4.33,0,0,1-.51,2.25,4.81,4.81,0,0,1-1.2,1.38,4.36,4.36,0,0,1-2.75.77H59.55V118.3h3.8a10.19,10.19,0,0,1,1.47.09,6.46,6.46,0,0,1,1.1.25,4.39,4.39,0,0,1,.83.36,4.46,4.46,0,0,1,1.43,1.33,4.43,4.43,0,0,1,.56,1.21A5.13,5.13,0,0,1,68.95,123Zm-2.8-.12a3.05,3.05,0,0,0-.43-1.74,2.07,2.07,0,0,0-1-.83,3.63,3.63,0,0,0-1.21-.21H62.31v5.41h1.18a3.37,3.37,0,0,0,1.87-.51A2.36,2.36,0,0,0,66.15,122.91Z" transform="translate(-21.24 -13.94)"/><path d="M82.94,127.44H76.05V118.3h6.78v1.83h-4v1.67h3.84v1.84H78.81v2h4.14v1.84Z" transform="translate(-21.24 -13.94)"/><path d="M96.58,124.78a2.53,2.53,0,0,1-.44,1.48,2.76,2.76,0,0,1-1.22,1,4.58,4.58,0,0,1-1.8.33c-0.19,0-.42,0-0.69,0a8.41,8.41,0,0,1-1.09-.2,8.59,8.59,0,0,1-1.42-.49v-2.24a9.73,9.73,0,0,0,1.36.71,3.62,3.62,0,0,0,1.43.28,1.26,1.26,0,0,0,.92-0.23,0.69,0.69,0,0,0,.21-0.44,0.75,0.75,0,0,0-.36-0.62,5,5,0,0,0-1-.52,8.41,8.41,0,0,1-1.32-.69,3.15,3.15,0,0,1-.93-0.93,2.41,2.41,0,0,1-.36-1.33,2.43,2.43,0,0,1,1.47-2.29,4.23,4.23,0,0,1,1.82-.35,6.29,6.29,0,0,1,1.41.15,6,6,0,0,1,1.07.33,4.32,4.32,0,0,1,.58.29v2.14a7.59,7.59,0,0,0-1.25-.72,3.51,3.51,0,0,0-1.47-.32,1.13,1.13,0,0,0-.75.2,0.62,0.62,0,0,0-.23.49,0.6,0.6,0,0,0,.23.47,4.13,4.13,0,0,0,.82.48,16.36,16.36,0,0,1,1.69.89,3.29,3.29,0,0,1,1,.91A2.18,2.18,0,0,1,96.58,124.78Z" transform="translate(-21.24 -13.94)"/><path d="M106.63,127.44h-2.76V118.3h2.76v9.14Z" transform="translate(-21.24 -13.94)"/><path d="M123,126.79l-0.51.18-0.4.13-0.57.15a11.77,11.77,0,0,1-1.25.22,10.8,10.8,0,0,1-1.31.08,6.38,6.38,0,0,1-2.57-.51,4.21,4.21,0,0,1-1.89-1.57,4.65,4.65,0,0,1-.71-2.62,5.58,5.58,0,0,1,.36-2,3.45,3.45,0,0,1,1.12-1.55,5.21,5.21,0,0,1,1.26-.73,5.3,5.3,0,0,1,1.24-.34,9.68,9.68,0,0,1,1.34-.08,9.07,9.07,0,0,1,2,.18q0.78,0.18,1.72.48V121a7.41,7.41,0,0,0-1.31-.61,5.33,5.33,0,0,0-1.73-.24,3.54,3.54,0,0,0-1.91.45,2.5,2.5,0,0,0-1,1.08,3,3,0,0,0-.28,1.21,2.6,2.6,0,0,0,.32,1.28,2.36,2.36,0,0,0,1,.94,3.28,3.28,0,0,0,1.58.35,5,5,0,0,0,1.12-.14v-1.07h-1.24V122.4H123v4.39Z" transform="translate(-21.24 -13.94)"/><path d="M140.45,127.44H138l-4.74-5.09v5.09h-2.73V118.3H133l4.73,5.06V118.3h2.75v9.14Z" transform="translate(-21.24 -13.94)"/></svg>