<?xml version="1.0" encoding="utf-8"?>
<!-- Generator: Adobe Illustrator 19.2.1, SVG Export Plug-In . SVG Version: 6.00 Build 0)  -->
<svg version="1.1" id="Layer_1" xmlns="http://www.w3.org/2000/svg" xmlns:xlink="http://www.w3.org/1999/xlink" x="0px" y="0px"
	 viewBox="0 0 100 100" style="enable-background:new 0 0 100 100;" xml:space="preserve">
<style type="text/css">
	.st0{fill:#D1D3D3;}
	.st1{fill:#A4A9AD;stroke:#A4A9AD;stroke-miterlimit:10;}
	.st2{fill:#D1D3D3;stroke:#A4A9AD;stroke-miterlimit:10;}
	.st3{fill:#A4A9AD;}
</style>
<g>
	<rect y="0" class="st0" width="100" height="100"/>
	<g>
		<g>
			<path class="st1" d="M19,62.8V26.9c0,0,0.1-2,1.8-2h58.1c0,0,2.1,0.1,2.1,2.1v35.8H19z"/>
			<g>
				<g>
					<path class="st1" d="M81,62.8H19v3.6c0,0,0.1,2,1.5,2h58.9c0,0,1.8,0.2,1.8-1.8V62.8z"/>
					<path class="st1" d="M42.8,68.4c0,0,0.2,5.4-1.1,5.7c0,0-0.3,0.3-2.4,0.4c0,0-0.1,0.3,0,0.5h21.2c0,0,0.2-0.1,0-0.5
						c0,0-2.6,0-2.9-0.7c0,0-0.4-0.1-0.6-5.4H42.8z"/>
				</g>
				<rect x="19" y="59.4" class="st1" width="62" height="3.4"/>
			</g>
		</g>
		<rect x="21.7" y="28.3" class="st2" width="56.6" height="32.2"/>
		<g>
			<path class="st3" d="M57.4,42.2C55.9,36.7,50,36,48.2,36v-2.9l-5.1,5l5.1,4.8v-3.1C54.3,39.7,57.4,42.2,57.4,42.2z"/>
			<path class="st3" d="M42.6,46.7c1.6,5.5,7.4,6.1,9.2,6.2v2.9l5.1-5l-5.1-4.8V49C45.7,49.2,42.6,46.7,42.6,46.7z"/>
		</g>
	</g>
</g>
</svg>
