<?xml version="1.0" encoding="utf-8"?>
<!-- Generator: Adobe Illustrator 19.2.1, SVG Export Plug-In . SVG Version: 6.00 Build 0)  -->
<svg version="1.1" id="Layer_1" xmlns="http://www.w3.org/2000/svg" xmlns:xlink="http://www.w3.org/1999/xlink" x="0px" y="0px"
	 viewBox="0 0 100 100" style="enable-background:new 0 0 100 100;" xml:space="preserve">
<style type="text/css">
	.st0{fill:#D1D3D3;}
	.st1{fill:#A4A9AD;}
</style>
<g>
	<rect x="0" y="0" class="st0" width="100" height="100"/>
	<g>
		<path class="st1" d="M74.7,47.3c-3.3-11.5-15.5-12.9-19.3-13v-6.1L44.7,38.7l10.8,10.2v-6.5C68.2,42,74.7,47.3,74.7,47.3z"/>
		<path class="st1" d="M25.3,56.8c3.3,11.5,15.5,12.9,19.3,13v6.1l10.8-10.6L44.6,55.2v6.5C31.8,62,25.3,56.8,25.3,56.8z"/>
		<g>
			<path class="st1" d="M23.7,25.6c0,3.1,2.5,5.6,5.6,5.6c3.1,0,5.6-2.5,5.6-5.6c0-0.8-0.2-1.6-0.5-2.3c-0.9-2-2.9-3.3-5.1-3.3
				C26.2,20,23.7,22.5,23.7,25.6z"/>
			<g>
				<path class="st1" d="M34.3,33.5l-3.5,0c0.1,0.2,0.2,0.5,0.2,0.7c0,0.5-0.2,0.9-0.6,1.2l0.9,8.7l-2,4l-2-4l0.9-8.7
					c-0.4-0.3-0.6-0.8-0.6-1.2c0-0.3,0.1-0.5,0.2-0.8l-2.5,0h-0.9c-6.9,1.2-6,6.9-6,6.9V49h21.8v-8.7C40.3,40.3,41.1,34.7,34.3,33.5
					z"/>
			</g>
		</g>
		<g>
			<path class="st1" d="M65,56.6c0,3.1,2.5,5.6,5.6,5.6c3.1,0,5.6-2.5,5.6-5.6c0-0.8-0.2-1.6-0.5-2.3c-0.9-1.9-2.9-3.3-5.1-3.3
				C67.5,51,65,53.5,65,56.6z"/>
			<g>
				<path class="st1" d="M75.6,64.5l-3.5,0c0.1,0.2,0.2,0.5,0.2,0.8c0,0.5-0.2,0.9-0.6,1.2l0.9,8.7l-2,4l-2-4l0.9-8.7
					c-0.4-0.3-0.6-0.7-0.6-1.2c0-0.3,0.1-0.5,0.2-0.8h-2.5h-0.9c-6.9,1.2-6,6.9-6,6.9V80h21.8v-8.7C81.6,71.4,82.4,65.7,75.6,64.5z"
					/>
			</g>
		</g>
	</g>
</g>
</svg>
