<?xml version="1.0" encoding="utf-8"?>
<!-- Generator: Adobe Illustrator 19.2.1, SVG Export Plug-In . SVG Version: 6.00 Build 0)  -->
<svg version="1.1" id="Layer_1" xmlns="http://www.w3.org/2000/svg" xmlns:xlink="http://www.w3.org/1999/xlink" x="0px" y="0px"
	 viewBox="0 0 100 100" style="enable-background:new 0 0 100 100;" xml:space="preserve">
<style type="text/css">
	.st0{fill:#D1D3D3;}
	.st1{fill:#A4A9AD;}
</style>
<g>
	<rect class="st0" width="100" height="100"/>
	<g>
		<g>
			<rect x="41.2" y="29.9" class="st1" width="4.1" height="10.1"/>
		</g>
		<g>
			<rect x="53.4" y="29.9" class="st1" width="4.1" height="10.7"/>
		</g>
		<g>
			<path class="st1" d="M58.1,39v-1.3c1.2,0,2.2-1,2.2-2.3c0-1.3-1-2.3-2.3-2.3H41.8c-1.3,0-2.3,1-2.3,2.3c0,1.2,0.9,2.1,2,2.3V39
				l-6.8,9.4l14.8,24.2l15.6-24.2L58.1,39z M46.7,45.5V52h1.1v9.2L40,48.6l5.9-8.2v-2.7h7.9v2.7l6.1,8.1l-7.7,12V52h1.1v-6.5H46.7z"
				/>
		</g>
	</g>
</g>
</svg>
